<svg version="1.2" xmlns="http://www.w3.org/2000/svg" viewBox="0 0 507 180" width="507" height="180">
	<title>iconos y cosas utilizadas en el prototipo-ai</title>
	<defs>
		<clipPath clipPathUnits="userSpaceOnUse" id="cp1">
			<path d="m185 1404h140v80h-140z"/>
		</clipPath>
	</defs>
	<style>
		.s0 { fill: #0b3b41 } 
		.s1 { fill: #b2c8c9;stroke: #b2c8c9;stroke-width: 2 } 
		.s2 { fill: #215559 } 
		.s3 { fill: #b2c8c9 } 
	</style>
	<g id="Capa 1">
		<path id="&lt;Path&gt;" class="s0" d="m370 5.5h130v113.5l-40 51.5h-184l94-50z"/>
		<path id="&lt;Path&gt;" class="s1" d="m488 37.5l-20-20h20z"/>
		<path id="&lt;Path&gt;" class="s2" d="m38.3 77.2h-34.3v-8h34.3v-31h16v31h36.2v8h-36.2v31.2h-16z"/>
		<path id="&lt;Compound Path&gt;" fill-rule="evenodd" class="s0" d="m157.4 107.5h-52.7v-77.1h52.7v10.3h-35.1v20.6h27.6v10.3h-27.6v25.6h35.1zm13-44q0-6 6.3-9.7 6.4-3.9 15.4-3.9h10.1q4.3 0 5.9 1l2.4 1.1v-19.5h17.7v75h-17.7v-1.7q-4 1.7-9 1.7h-9.4q-14.1 0-19.8-7.9-1.9-2.6-1.9-5.7zm32.6 33.6q7.5 0 7.5-5.1v-26.9q-0.3-4.9-7.5-4.9h-7.4q-7.5 0-7.5 5.1v26.7q0 5.1 7.5 5.1zm56.5-5.1q0 5.1 7.6 5.1h4.6q4 0 6.4-1.4 3.9-2.8 3.9-5.5v-40.3h17.6v57.5h-17.6v-3.4q-4.8 3.4-11.8 3.4h-6.6q-14.2 0-19.9-7.9-1.8-2.5-1.8-5.8v-43.8h17.6zm56-23.7h50.2v8.1h-50.2z"/>
		<path id="&lt;Compound Path&gt;" class="s3" d="m405.6 92.1q0 5.1 7.3 5.1h4.6v10.3h-8.1q-14.1 0-19.8-7.9-1.9-2.6-1.9-5.9v-33.5h-10.6v-10.3h10.6v-13h17.9v13h11.2v10.3h-11.2zm21.2 15.5v-75.2h17.7v45.6l22.1-28h18.7l-22.4 28.5 22.4 29.1h-18.7l-22.1-28.3v28.3z"/>
		<g id="&lt;Group&gt;">
		</g>
		<g id="&lt;Group&gt;">
		</g>
		<g id="&lt;Group&gt;">
			<g id="&lt;Group&gt;" style="opacity: .8">
			</g>
		</g>
		<g id="&lt;Group&gt;">
			<g id="&lt;Group&gt;" style="opacity: .8">
			</g>
		</g>
		<g id="&lt;Clip Group&gt;" clip-path="url(#cp1)">
			<g id="&lt;Group&gt;">
			</g>
		</g>
		<g id="&lt;Group&gt;">
			<g id="&lt;Group&gt;" style="opacity: .8">
			</g>
		</g>
	</g>
</svg>