<svg version="1.2" xmlns="http://www.w3.org/2000/svg" viewBox="0 0 39 39" width="39" height="39">
	<title>iconos y cosas utilizadas en el prototipo-ai</title>
	<defs>
		<clipPath clipPathUnits="userSpaceOnUse" id="cp1">
			<path d="m251 1446h140v80h-140z"/>
		</clipPath>
		<linearGradient id="g1" x1="256.1" y1="1424.3" x2="235.5" y2="1512.7" gradientUnits="userSpaceOnUse">
			<stop offset="0" stop-color="#0b3b42"/>
			<stop offset="1" stop-color="#010203"/>
		</linearGradient>
	</defs>
	<style>
		.s0 { fill: #0b3b41 } 
		.s1 { fill: #b2c8c9;stroke: #b2c8c9;stroke-width: 2 } 
		.s2 { fill: #215559 } 
		.s3 { fill: #b2c8c9 } 
		.s4 { opacity: .8;fill: #010203 } 
		.s5 { fill: #042128 } 
		.s6 { fill: #5c878b } 
		.s7 { fill: #d5e2e2;stroke: #578386;stroke-width: 4 } 
		.s8 { fill: #fefefe } 
		.s9 { fill: #042128;stroke: #578386;stroke-width: 4 } 
		.s10 { fill: #010203 } 
		.s11 { fill: url(#g1) } 
		.s12 { fill: none;stroke: #010203;stroke-width: 2 } 
		.s13 { fill: none;stroke: #010203;stroke-linecap: square;stroke-width: 2 } 
	</style>
	<g id="Capa 1">
		<path id="&lt;Path&gt;" class="s0" d="m436 47.5h130v113.5l-40 51.5h-184l94-50z"/>
		<path id="&lt;Path&gt;" class="s1" d="m554 79.5l-20-20h20z"/>
		<path id="&lt;Path&gt;" class="s2" d="m104.3 119.2h-34.3v-8h34.3v-31h16v31h36.2v8h-36.2v31.2h-16z"/>
		<path id="&lt;Compound Path&gt;" fill-rule="evenodd" class="s0" d="m223.4 149.5h-52.7v-77.1h52.7v10.3h-35.1v20.6h27.6v10.3h-27.6v25.6h35.1zm13-44q0-6 6.3-9.7 6.4-3.9 15.4-3.9h10.1q4.3 0 5.9 1l2.4 1.1v-19.5h17.7v75h-17.7v-1.7q-4 1.7-9 1.7h-9.4q-14.1 0-19.8-7.9-1.9-2.6-1.9-5.7zm32.6 33.6q7.5 0 7.5-5.1v-26.9q-0.3-4.9-7.5-4.9h-7.4q-7.5 0-7.5 5.1v26.7q0 5.1 7.5 5.1zm56.5-5.1q0 5.1 7.6 5.1h4.6q4 0 6.4-1.4 3.9-2.8 3.9-5.5v-40.3h17.6v57.5h-17.6v-3.4q-4.8 3.4-11.8 3.4h-6.6q-14.2 0-19.9-7.9-1.8-2.5-1.8-5.8v-43.8h17.6zm56-23.7h50.2v8.1h-50.2z"/>
		<path id="&lt;Compound Path&gt;" class="s3" d="m471.6 134.1q0 5.1 7.3 5.1h4.6v10.3h-8.1q-14.1 0-19.8-7.9-1.9-2.6-1.9-5.9v-33.5h-10.6v-10.3h10.6v-13h17.9v13h11.2v10.3h-11.2zm21.2 15.5v-75.2h17.7v45.6l22.1-28h18.7l-22.4 28.5 22.4 29.1h-18.7l-22.1-28.3v28.3z"/>
		<g id="&lt;Group&gt;">
			<path id="&lt;Path&gt;" class="s4" d="m8.7 14.7l5.3 5.3-1.4 1.4-7-7-0.7-0.7 0.7-0.7 7-7 1.4 1.4-5.3 5.3h18.6c1.1 0 2 0.9 2 2v14h-2v-14z"/>
		</g>
		<path id="&lt;Compound Path&gt;" fill-rule="evenodd" class="s5" d="m143.3 336.4l11.4 15.4h-8.3l-11.2-15.1v15.1h-8v-34.7h16q4 0 6.8 1.7 2.9 1.6 2.9 4.5v6.9q0 2.9-2.8 4.5-2.8 1.7-6.8 1.7zm-1.7-4.7q3.3 0 3.3-2.3v-5.4q0-2.3-3.3-2.3h-6.4v10zm28.8 15.4q3.3 0 3.3-2.3v-1.6h8v2.4q0 2.9-3 4.5-2.7 1.7-6.7 1.7h-5.5q-6.4 0-9-3.6-0.8-1.1-0.8-2.6v-13.6q0-2.8 2.8-4.5 2.9-1.7 7-1.7h5.5q4 0 6.7 1.6 3 1.7 3 4.6v7.8h-17.1v5q0 2.3 3.4 2.3zm-2.4-16.7q-3.4 0-3.4 2.3v2.4h9.1v-2.4q0-2.3-3.3-2.3zm36 20.5q-0.9 0.9-3.6 0.9h-4q-6.4 0-8.9-3.5-0.9-1.2-0.9-2.7v-13.6q0-2.7 2.8-4.4 2.9-1.7 7-1.7h3.5q2.3 0 4.1 0.6v-0.7h7.9v29.8q0 2.6-2.9 4.4-2.8 1.7-6.7 1.7h-5.7q-3.7 0-6.7-1.7-2.9-1.6-2.9-4.4v-1.6h7.9v0.8q0 2.3 3.4 2.3h2.4q3.3 0 3.3-2.3zm-3.3-3.8q3.3 0 3.3-2.1v-12.2q0-2.3-3.3-2.3h-2.7q-3.4 0-3.4 2.3v12q0 2.3 3.4 2.3zm25.4-28.2v4.6h-8v-4.6zm-7.9 7h7.9v25.9h-7.9zm31.2 16.3q0-2.3-3.4-2.3h-4.8q-6.5 0-9-3.4-0.8-1.2-0.8-2.7v-1.8q0-2.8 2.8-4.5 2.9-1.7 7-1.7h6.4q4.1 0 6.8 1.6 3 1.7 3 4.6v1.1h-8v-0.4q0-2.3-3.4-2.3h-3.3q-3.4 0-3.4 2.3v0.3q0 2.5 3.4 2.3h4.9q4.1 0 6.9 1.7 2.9 1.6 2.9 4.5v4.1q0 2.9-3 4.5-2.7 1.7-6.8 1.7h-6.4q-6.4 0-9-3.6-0.8-1.2-0.8-2.6v-2.6h7.9v1.8q0 2.3 3.4 2.3h3.3q3.4 0 3.4-2.3zm24.6 2.6q0 2.3 3.3 2.3h2v4.6h-3.6q-6.4 0-8.9-3.5-0.9-1.2-0.9-2.7v-15h-4.8v-4.7h4.8v-5.8h8.1v5.8h5v4.7h-5zm16.4-17q2-2 6-2h1.4v4.6h-2.1q-3.4 0-4.8 2.1-0.5 0.7-0.5 1.5v17.7h-7.9v-25.9h7.9zm21.7 2.7q-3.4 0-3.4 2.3v0.8h-7.9v-1.7q0-2.8 2.8-4.4 2.9-1.7 6.8-1.7h5.7q3.9 0 6.8 1.7 2.9 1.6 2.9 4.4v19.8h-8v-0.7q-1.8 0.7-4 0.7h-3.6q-6.4 0-8.9-3.5-0.9-1.2-0.9-2.6v-4.1q0-2.8 2.8-4.4 2.9-1.8 7-1.8h4q2.2 0 3.6 1v-3.5q0-2.3-3.3-2.3zm2.4 16.6q3.3 0 3.3-2.3v-2.6q-0.2-2.2-3.3-2.2h-2.7q-3.4 0-3.4 2.3v2.5q0 2.3 3.4 2.3zm24.1-19.3q1.9-2 5.9-2h1.4v4.7h-2.1q-3.3 0-4.8 2-0.4 0.7-0.4 1.5v17.7h-8v-25.9h8zm28 14.4q0-2.3-3.4-2.3h-4.9q-6.4 0-8.9-3.5-0.8-1.1-0.8-2.6v-1.8q0-2.9 2.8-4.5 2.9-1.7 6.9-1.7h6.5q4.1 0 6.8 1.6 3 1.7 3 4.6v1.1h-8v-0.4q0-2.3-3.4-2.3h-3.3q-3.4 0-3.4 2.3v0.3q0 2.4 3.4 2.3h4.9q4.1 0 6.9 1.6 2.9 1.7 2.9 4.6v4q0 2.9-3 4.6-2.7 1.6-6.8 1.6h-6.5q-6.3 0-8.9-3.5-0.8-1.2-0.8-2.7v-2.5h7.9v1.8q0 2.3 3.4 2.3h3.3q3.4 0 3.4-2.3zm26.7 4.9q3.3 0 3.3-2.3v-1.7h8v2.4q0 2.9-3 4.6-2.8 1.6-6.7 1.6h-5.6q-6.3 0-8.9-3.6-0.8-1.1-0.8-2.6v-13.6q0-2.8 2.8-4.4 2.9-1.8 6.9-1.8h5.6q3.9 0 6.7 1.7 3 1.6 3 4.5v7.8h-17.1v5.1q0 2.3 3.4 2.3zm-2.4-16.7q-3.4 0-3.4 2.3v2.4h9.1v-2.4q0-2.3-3.3-2.3z"/>
		<path id="&lt;Path&gt;" class="s0" d="m436.6 245.8h130v113.5l-40 51.5h-184l94-50z"/>
		<path id="&lt;Path&gt;" class="s1" d="m554.6 277.8l-20-20h20z"/>
		<path id="&lt;Compound Path&gt;" fill-rule="evenodd" class="s5" d="m63.7 547.5v-34.7h7.9v34.7zm31.1-19q0-2.3-3.4-2.3h-2q-1.8 0-3.3 0.9-1.4 1-1.4 2.3v18.1h-7.9v-25.9h7.9v1.6q1.9-1.6 5.4-1.6h2.9q4.1 0 6.9 1.7 2.9 1.6 2.9 4.4v19.8h-8zm21.1-13.9v4.6h-7.9v-4.6zm-7.9 6.9h7.9v26h-7.9zm26.9 21.2q3.3 0 3.3-2.3v-1.8h7.9v2.5q0 2.9-3 4.6-2.7 1.7-6.7 1.7h-5.5q-6.4 0-8.9-3.6-0.9-1.2-0.9-2.7v-13.5q0-2.8 2.8-4.5 2.9-1.7 7-1.7h5.5q4 0 6.7 1.6 3 1.7 3 4.6v2.6h-7.9v-1.9q0-2.3-3.3-2.3h-2.4q-3.4 0-3.4 2.3v12.1q0 2.3 3.4 2.3zm25-28.2v4.6h-7.9v-4.6zm-8 7h8v25.9h-8zm24.9 4.6q-3.4 0-3.4 2.3v0.8h-7.9v-1.6q0-2.8 2.8-4.5 2.9-1.6 6.8-1.6h5.7q3.9 0 6.8 1.6 2.9 1.7 2.9 4.5v19.8h-8v-0.8q-1.8 0.8-4 0.8h-3.6q-6.4 0-8.9-3.6-0.9-1.2-0.9-2.6v-4.1q0-2.7 2.8-4.4 2.9-1.7 7-1.7h4q2.2 0 3.6 0.9v-3.5q0-2.3-3.3-2.3zm2.4 16.6q3.3 0 3.3-2.3v-2.6q-0.2-2.2-3.3-2.2h-2.7q-3.4 0-3.4 2.3v2.5q0 2.3 3.4 2.3zm24-19.3q2-1.9 6-1.9h1.4v4.6h-2.1q-3.3 0-4.8 2.1-0.5 0.6-0.5 1.4v17.8h-7.9v-25.9h7.9zm45.3 14.4q0-2.4-3.4-2.4h-4.9q-6.5 0-9-3.4-0.8-1.2-0.8-2.7v-1.8q0-2.8 2.8-4.5 2.9-1.7 7-1.7h6.4q4.1 0 6.8 1.6 3 1.7 3 4.6v1.2h-7.9v-0.5q0-2.3-3.4-2.3h-3.4q-3.3 0-3.3 2.3v0.3q0 2.5 3.3 2.3h4.9q4.1 0 6.9 1.7 2.9 1.6 2.9 4.5v4.1q0 2.9-3 4.5-2.7 1.7-6.8 1.7h-6.4q-6.4 0-9-3.6-0.8-1.1-0.8-2.6v-2.6h8v1.8q0 2.3 3.3 2.3h3.4q3.4 0 3.4-2.3zm26.6 4.9q3.3 0 3.3-2.3v-1.7h8v2.4q0 2.9-3 4.6-2.7 1.6-6.7 1.6h-5.5q-6.4 0-9-3.5-0.8-1.2-0.8-2.7v-13.5q0-2.9 2.8-4.5 2.9-1.7 7-1.7h5.5q4 0 6.7 1.6 3 1.7 3 4.6v7.7h-17.1v5.1q0 2.3 3.4 2.3zm-2.4-16.7q-3.4 0-3.4 2.3v2.4h9.1v-2.4q0-2.3-3.3-2.3zm32.4 16.7q3.3 0 3.3-2.3v-1.8h7.9v2.5q0 2.9-3 4.6-2.7 1.6-6.7 1.6h-5.5q-6.4 0-9-3.5-0.8-1.2-0.8-2.7v-13.5q0-2.9 2.8-4.5 2.9-1.7 7-1.7h5.5q4 0 6.7 1.6 3 1.7 3 4.6v2.6h-7.9v-1.9q0-2.3-3.3-2.3h-2.4q-3.4 0-3.4 2.3v12.1q0 2.3 3.4 2.3zm29.8 0q3.3 0 3.3-2.3v-1.8h8v2.5q0 2.9-3 4.6-2.7 1.6-6.7 1.6h-5.6q-6.3 0-8.9-3.5-0.8-1.2-0.8-2.7v-13.5q0-2.9 2.8-4.5 2.9-1.7 6.9-1.7h5.6q4 0 6.7 1.6 3 1.7 3 4.6v2.6h-8v-1.9q0-2.3-3.3-2.3h-2.4q-3.4 0-3.4 2.3v12.1q0 2.3 3.4 2.3zm25.1-28.2v4.6h-8v-4.6zm-7.9 6.9h7.9v25.9h-7.9zm13.2 6.2q0-2.9 2.8-4.5 2.9-1.7 6.9-1.7h5.6q4 0 6.7 1.6 3 1.7 3 4.6v13.5q0 2.9-3 4.6-2.7 1.6-6.7 1.6h-5.6q-6.3 0-8.9-3.5-0.8-1.2-0.8-2.7zm13.7 15.2q3.3 0 3.3-2.3v-12.1q0-2.3-3.3-2.3h-2.4q-3.4 0-3.4 2.3v12.1q0 2.3 3.4 2.3zm34.2-14.3q0-2.4-3.4-2.4h-2.1q-1.7 0-3.2 1-1.4 0.9-1.4 2.2v18.1h-8v-25.9h8v1.6q1.9-1.6 5.4-1.6h2.8q4.1 0 6.9 1.7 2.9 1.6 2.9 4.4v19.8h-7.9z"/>
		<path id="&lt;Path&gt;" class="s0" d="m446.3 443.5h130v113.5l-40 51.5h-184l94-50z"/>
		<path id="&lt;Path&gt;" class="s1" d="m564.3 475.5l-20-20h20z"/>
		<path id="&lt;Path&gt;" class="s2" d="m-2 695.7h-34.2v-7.9h34.2v-31.1h16v31.1h36.2v7.9h-36.2v31.2h-16z"/>
		<path id="&lt;Compound Path&gt;" fill-rule="evenodd" class="s0" d="m117.2 726h-52.8v-77h52.8v10.3h-35.1v20.6h27.5v10.3h-27.5v25.5h35.1zm13-43.9q0-6.1 6.2-9.8 6.5-3.8 15.5-3.8h10.1q4.2 0 5.9 0.9l2.4 1.1v-19.5h17.6v75h-17.6v-1.6q-4.1 1.6-9 1.6h-9.4q-14.2 0-19.9-7.9-1.8-2.6-1.8-5.7zm32.5 33.7q7.6 0 7.6-5.2v-26.8q-0.4-5-7.6-5h-7.3q-7.6 0-7.6 5.2v26.6q0 5.2 7.6 5.2zm56.5-5.2q0 5.2 7.5 5.2h4.6q4.1 0 6.5-1.5 3.8-2.8 3.8-5.5v-40.3h17.7v57.6h-17.7v-3.5q-4.8 3.5-11.7 3.5h-6.7q-14.1 0-19.8-7.9-1.9-2.6-1.9-5.9v-43.8h17.7zm56-23.7h50.2v8.1h-50.2z"/>
		<path id="&lt;Compound Path&gt;" class="s3" d="m365.3 710.6q0 5.1 7.4 5.1h4.6v10.3h-8.1q-14.2 0-19.9-7.9-1.8-2.6-1.8-5.9v-33.4h-10.7v-10.3h10.7v-13.1h17.8v13.1h11.2v10.3h-11.2zm21.3 15.4v-75.2h17.7v45.6l22-28h18.8l-22.5 28.6 22.5 29h-18.8l-22-28.3v28.3z"/>
		<path id="&lt;Compound Path&gt;" fill-rule="evenodd" class="s0" d="m-9.6 780v-34.6h15.9q4 0 6.8 1.6 2.9 1.7 2.9 4.6v6.9q0 2.9-2.9 4.6-2.8 1.6-6.8 1.6h-8v15.3zm14.3-19.9q3.4 0 3.4-2.3v-5.5q0-2.3-3.4-2.3h-6.4v10.1zm17 19.9v-33.2h7.9v33.2zm24.8-21.2q-3.4 0-3.4 2.3v0.8h-7.9v-1.7q0-2.8 2.8-4.4 2.9-1.7 6.9-1.7h5.6q4 0 6.8 1.7 2.9 1.6 2.9 4.4v19.8h-8v-0.7q-1.8 0.7-4 0.7h-3.6q-6.3 0-8.9-3.5-0.8-1.2-0.8-2.6v-4.1q0-2.8 2.8-4.4 2.9-1.8 6.9-1.8h4q2.2 0 3.6 1v-3.5q0-2.3-3.3-2.3zm2.4 16.6q3.3 0 3.3-2.3v-2.6q-0.1-2.2-3.3-2.2h-2.7q-3.4 0-3.4 2.3v2.5q0 2.3 3.4 2.3zm34.2-14.3q0-2.3-3.4-2.3h-2.1q-1.7 0-3.2 0.9-1.4 0.9-1.4 2.2v18.1h-8v-25.9h8v1.6q1.9-1.6 5.4-1.6h2.9q4 0 6.8 1.7 2.9 1.6 2.9 4.4v19.8h-7.9zm25.9 14.3q3.3 0 3.3-2.3v-1.6h7.9v2.4q0 2.9-2.9 4.5-2.8 1.7-6.7 1.7h-5.6q-6.4 0-8.9-3.6-0.9-1.1-0.9-2.6v-13.6q0-2.8 2.9-4.5 2.9-1.7 6.9-1.7h5.6q3.9 0 6.7 1.6 2.9 1.7 2.9 4.6v7.8h-17v5q0 2.3 3.4 2.3zm-2.4-16.7q-3.4 0-3.4 2.3v2.4h9.1v-2.4q0-2.3-3.3-2.3zm36.6 11.9q0-2.4-3.4-2.4h-4.9q-6.4 0-8.9-3.4-0.8-1.2-0.8-2.7v-1.8q0-2.8 2.8-4.5 2.9-1.7 6.9-1.7h6.5q4.1 0 6.8 1.6 3 1.7 3 4.6v1.2h-8v-0.5q0-2.3-3.4-2.3h-3.3q-3.4 0-3.4 2.3v0.3q0 2.5 3.4 2.3h4.9q4.1 0 6.9 1.7 2.9 1.6 2.9 4.5v4.1q0 2.9-3 4.5-2.7 1.7-6.8 1.7h-6.5q-6.3 0-8.9-3.6-0.8-1.1-0.8-2.6v-2.6h7.9v1.8q0 2.3 3.4 2.3h3.3q3.4 0 3.4-2.3zm30.1-10.2q0-2.8 2.8-4.4 2.9-1.8 7-1.8h4.5q1.9 0 2.7 0.5l1 0.5v-8.8h8v33.7h-8v-0.7q-1.8 0.7-4 0.7h-4.2q-6.4 0-9-3.5-0.8-1.2-0.8-2.6zm14.6 15.2q3.4 0 3.4-2.4v-12q-0.1-2.3-3.4-2.3h-3.3q-3.4 0-3.4 2.3v12q0 2.4 3.4 2.4zm30.2 0q3.3 0 3.3-2.4v-1.6h7.9v2.4q0 2.9-3 4.5-2.7 1.7-6.7 1.7h-5.5q-6.4 0-8.9-3.6-0.9-1.1-0.9-2.6v-13.6q0-2.8 2.8-4.4 2.9-1.8 7-1.8h5.5q4 0 6.7 1.7 3 1.6 3 4.5v7.8h-17v5q0 2.4 3.4 2.4zm-2.4-16.8q-3.4 0-3.4 2.4v2.4h9.1v-2.4q0-2.4-3.3-2.4zm49.4 16.8q3.3 0 3.3-2.4v-1.6h8v2.4q0 2.9-3 4.5-2.7 1.7-6.7 1.7h-5.5q-6.4 0-9-3.6-0.8-1.1-0.8-2.6v-13.6q0-2.8 2.8-4.4 2.9-1.8 7-1.8h5.5q4 0 6.7 1.7 3 1.6 3 4.5v7.8h-17.1v5q0 2.4 3.4 2.4zm-2.4-16.8q-3.4 0-3.4 2.4v2.4h9.1v-2.4q0-2.4-3.3-2.4zm36.7 11.9q0-2.3-3.4-2.3h-4.9q-6.5 0-9-3.5-0.8-1.2-0.8-2.7v-1.8q0-2.8 2.8-4.4 2.9-1.8 7-1.8h6.4q4.1 0 6.8 1.7 3 1.6 3 4.5v1.2h-7.9v-0.4q0-2.4-3.4-2.4h-3.3q-3.4 0-3.4 2.4v0.2q0 2.5 3.4 2.3h4.8q4.1 0 6.9 1.7 2.9 1.6 2.9 4.5v4.1q0 2.9-3 4.5-2.7 1.7-6.8 1.7h-6.4q-6.4 0-9-3.6-0.8-1.1-0.8-2.6v-2.6h8v1.8q0 2.4 3.4 2.4h3.3q3.4 0 3.4-2.4zm24.5 2.6q0 2.3 3.3 2.3h2.1v4.7h-3.7q-6.3 0-8.9-3.6-0.8-1.2-0.8-2.6v-15.1h-4.8v-4.6h4.8v-5.9h8v5.9h5v4.6h-5zm16.4 0q0 2.3 3.4 2.3h2.1q1.8 0 2.9-0.6 1.7-1.3 1.7-2.5v-18.2h8v25.9h-8v-1.5q-2.1 1.5-5.3 1.5h-2.9q-6.4 0-9-3.5-0.8-1.2-0.8-2.7v-19.7h7.9zm23.1-12.8q0-2.7 2.9-4.4 2.9-1.7 6.9-1.7h4.6q1.9 0 2.6 0.4l1.1 0.5v-8.8h7.9v33.8h-7.9v-0.7q-1.8 0.7-4.1 0.7h-4.2q-6.4 0-8.9-3.6-0.9-1.1-0.9-2.5zm14.7 15.1q3.4 0 3.4-2.3v-12.1q-0.2-2.2-3.4-2.2h-3.3q-3.4 0-3.4 2.3v12q0 2.3 3.4 2.3zm25.3-28.2v4.6h-7.9v-4.6zm-8 6.9h8v26h-8zm13.2 6.1q0-2.8 2.8-4.5 2.9-1.7 7-1.7h5.5q4 0 6.7 1.6 3 1.7 3 4.6v13.5q0 2.9-3 4.6-2.7 1.7-6.7 1.7h-5.5q-6.4 0-9-3.6-0.8-1.2-0.8-2.7zm13.8 15.2q3.3 0 3.3-2.3v-12.1q0-2.3-3.3-2.3h-2.4q-3.4 0-3.4 2.3v12.1q0 2.3 3.4 2.3z"/>
		<path id="&lt;Path&gt;" class="s6" d="m541.7 734h130v113.5l-40 51.5h-184l94-50z"/>
		<path id="&lt;Path&gt;" class="s1" d="m659.7 766l-20-20h20z"/>
		<path id="&lt;Path&gt;" class="s7" d="m-10.7 1194h310c5.5 0 10 4.5 10 10v80c0 5.5-4.5 10-10 10h-310c-5.6 0-10-4.5-10-10v-80c0-5.5 4.4-10 10-10z"/>
		<path id="&lt;Compound Path&gt;" fill-rule="evenodd" class="s0" d="m65.4 1252v-12.5h2.8v12.5zm6.2 0v-12.5h2.9l4.5 7.6v-7.6h2.9v12.5h-3l-4.4-7.5v7.5zm14 0v-12.5h2.9v12.5zm11.1-1.7q1.2 0 1.2-0.8v-1.4h2.9v1.7q0 1-1.1 1.6-1 0.6-2.4 0.6h-2q-2.3 0-3.3-1.3-0.3-0.4-0.3-0.9v-8.1q0-1 1.1-1.6 1-0.6 2.5-0.6h2q1.4 0 2.4 0.6 1.1 0.6 1.1 1.6v1.7h-2.9v-1.4q0-0.8-1.2-0.8h-0.9q-1.2 0-1.2 0.8v7.5q0 0.8 1.2 0.8zm7.4 1.7v-12.5h2.8v12.5zm14.2-12.5l4.5 12.5h-2.8l-1.1-3h-5.4l-1.1 3h-2.8l4.5-12.5zm-4.2 7.9h4.3l-2.1-5.6zm17-0.9l4.1 5.5h-3l-4-5.4v5.4h-2.9v-12.5h5.8q1.4 0 2.4 0.6 1.1 0.6 1.1 1.7v2.4q0 1.1-1 1.7-1 0.6-2.5 0.6zm-0.6-1.7q1.2 0 1.2-0.8v-2q0-0.8-1.2-0.8h-2.3v3.6zm21 2q0-0.8-1.2-0.8h-1.8q-2.3 0-3.2-1.3-0.3-0.4-0.3-0.9v-2q0-1.1 1-1.7 1.1-0.6 2.5-0.6h2.4q1.4 0 2.4 0.6 1.1 0.6 1.1 1.7v1.2h-2.9v-1q0-0.8-1.2-0.8h-1.2q-1.2 0-1.2 0.8v1.5q0 0.9 1.2 0.8h1.8q1.4 0 2.4 0.6 1.1 0.6 1.1 1.6v3.3q0 1-1.1 1.6-1 0.6-2.4 0.6h-2.4q-2.3 0-3.2-1.2-0.3-0.5-0.3-1v-1.7h2.9v1.4q0 0.9 1.2 0.9h1.2q1.2 0 1.2-0.9zm14.6 5.3h-8.5v-12.6h8.5v1.7h-5.7v3.4h4.5v1.6h-4.5v4.2h5.7zm8.2-1.7q1.2 0 1.2-0.8v-1.4h2.8v1.6q0 1.1-1.1 1.7-0.9 0.6-2.4 0.6h-2q-2.3 0-3.2-1.3-0.3-0.4-0.3-1v-8q0-1 1-1.6 1.1-0.6 2.5-0.6h2q1.5 0 2.5 0.6 1 0.6 1 1.6v1.7h-2.8v-1.4q0-0.9-1.2-0.9h-0.9q-1.2 0-1.2 0.9v7.5q0 0.8 1.2 0.8zm12.1 0q1.1 0 1.1-0.8v-1.4h2.9v1.6q0 1.1-1.1 1.7-0.9 0.6-2.4 0.6h-2q-2.3 0-3.2-1.3-0.3-0.4-0.3-1v-8q0-1 1-1.6 1.1-0.6 2.5-0.6h2q1.5 0 2.5 0.6 1 0.6 1 1.6v1.7h-2.9v-1.4q0-0.9-1.1-0.9h-0.9q-1.2 0-1.2 0.9v7.5q0 0.8 1.2 0.8zm7.3 1.7v-12.5h2.9v12.5zm6.1-10.3q0-1 1.1-1.6 1-0.6 2.5-0.6h2.4q2.3 0 3.3 1.3 0.3 0.4 0.3 0.9v8q0 1.1-1.1 1.7-1 0.6-2.5 0.6h-2.4q-2.3 0-3.3-1.3-0.2-0.4-0.3-1zm5.5 8.7q1.2 0 1.2-0.9v-7.5q0-0.8-1.2-0.8h-1.4q-1.2 0-1.2 0.8v7.5q0 0.9 1.2 0.9zm7.5 1.6v-12.5h2.9l4.5 7.7v-7.7h2.9v12.5h-3l-4.5-7.5v7.5z"/>
		<path id="&lt;Path&gt;" class="s5" d="m341.3 1192h310c6.6 0 12 5.4 12 12v80c0 6.6-5.4 12-12 12h-310c-6.7 0-12-5.4-12-12v-80c0-6.6 5.3-12 12-12z"/>
		<path id="&lt;Compound Path&gt;" fill-rule="evenodd" class="s8" d="m438.3 1246.4l4.1 5.6h-3l-4.1-5.4v5.4h-2.8v-12.5h5.7q1.5 0 2.5 0.6 1 0.6 1 1.6v2.5q0 1-1 1.6-1 0.6-2.4 0.6zm-0.7-1.6q1.3 0 1.3-0.9v-1.9q0-0.8-1.3-0.8h-2.3v3.6zm15.5 7.2h-8.6v-12.5h8.6v1.7h-5.7v3.3h4.5v1.7h-4.5v4.1h5.7zm8.4-1.6q1.3 0 1.3-0.9v-1.7h-2.2v-1.7h5v3.7q0 1-1 1.6-1 0.6-2.5 0.6h-2.3q-2.3 0-3.2-1.3-0.3-0.4-0.3-0.9v-8.1q0-1 1-1.6 1-0.6 2.5-0.6h2.3q1.5 0 2.5 0.6 1 0.6 1 1.6v1.7h-2.8v-1.4q0-0.8-1.3-0.8h-1.2q-1.2 0-1.2 0.8v7.5q0 0.9 1.2 0.9zm7.6 1.6v-12.5h2.8v12.5zm12.7-5.2q0-0.8-1.2-0.8h-1.8q-2.3 0-3.2-1.3-0.3-0.4-0.3-1v-2q0-1 1-1.6 1.1-0.6 2.5-0.6h2.4q1.4 0 2.4 0.6 1.1 0.6 1.1 1.6v1.3h-2.9v-1q0-0.8-1.2-0.8h-1.2q-1.2 0-1.2 0.8v1.4q0 0.9 1.2 0.9h1.8q1.4 0 2.4 0.6 1.1 0.6 1.1 1.6v3.3q0 1-1.1 1.6-1 0.6-2.4 0.6h-2.4q-2.3 0-3.2-1.3-0.3-0.4-0.3-0.9v-1.7h2.9v1.4q0 0.9 1.2 0.9h1.2q1.2 0 1.2-0.9zm15.3-5.6h-3.4v10.8h-2.9v-10.8h-3.4v-1.7h9.7zm8.3 5.3l4.2 5.6h-3.1l-4-5.5v5.5h-2.9v-12.5h5.8q1.4 0 2.5 0.5 1 0.6 1 1.7v2.5q0 1-1 1.6-1 0.6-2.5 0.6zm-0.6-1.7q1.2 0 1.2-0.8v-1.9q0-0.9-1.2-0.9h-2.3v3.6zm14.9-5.2l4.6 12.5h-2.9l-1.1-3h-5.4l-1 3h-2.9l4.5-12.5zm-4.2 7.8h4.3l-2.1-5.5zm17-0.9l4.2 5.5h-3.1l-4-5.4v5.4h-2.9v-12.5h5.8q1.4 0 2.5 0.6 1 0.6 1 1.6v2.5q0 1.1-1 1.7-1 0.6-2.5 0.6zm-0.6-1.7q1.2 0 1.2-0.9v-1.9q0-0.8-1.2-0.8h-2.3v3.6zm13.4 2q0-0.9-1.2-0.9h-1.8q-2.3 0-3.2-1.2-0.3-0.4-0.3-1v-2q0-1 1-1.6 1.1-0.6 2.5-0.6h2.3q1.5 0 2.5 0.6 1.1 0.6 1.1 1.6v1.3h-2.9v-1q0-0.8-1.2-0.8h-1.2q-1.2 0-1.2 0.8v1.4q0 0.9 1.2 0.9h1.7q1.5 0 2.5 0.6 1.1 0.6 1.1 1.6v3.3q0 1-1.1 1.6-1 0.6-2.5 0.6h-2.3q-2.3 0-3.2-1.3-0.3-0.4-0.3-0.9v-1.7h2.9v1.4q0 0.8 1.2 0.8h1.2q1.2 0 1.2-0.8zm14.6 5.2h-8.5v-12.5h8.5v1.7h-5.7v3.3h4.5v1.7h-4.5v4.2h5.7z"/>
		<path id="&lt;Path&gt;" class="s9" d="m-11 1056h662c5.5 0 10 4.5 10 10v80c0 5.5-4.5 10-10 10h-662c-5.5 0-10-4.5-10-10v-80c0-5.5 4.5-10 10-10z"/>
		<path id="&lt;Compound Path&gt;" class="s8" d="m277.7 1108.8q0-0.9-1.2-0.9h-1.8q-2.3 0-3.2-1.2-0.3-0.4-0.3-1v-2q0-1 1-1.6 1-0.6 2.5-0.6h2.3q1.5 0 2.5 0.6 1 0.6 1 1.6v1.2h-2.8v-0.9q0-0.8-1.2-0.8h-1.2q-1.3 0-1.3 0.8v1.4q0 0.9 1.3 0.9h1.7q1.5 0 2.5 0.6 1 0.6 1 1.6v3.3q0 1-1 1.6-1 0.6-2.5 0.6h-2.3q-2.3 0-3.2-1.3-0.3-0.4-0.3-0.9v-1.7h2.8v1.4q0 0.8 1.3 0.8h1.2q1.2 0 1.2-0.8zm6.3 5.2v-12.5h2.8v12.5zm11.5-1.7q1.2 0 1.2-0.8v-1.7h-2.2v-1.7h5.1v3.7q0 1-1.1 1.6-1 0.6-2.4 0.6h-2.4q-2.3 0-3.2-1.3-0.3-0.4-0.3-0.9v-8.1q0-1 1-1.6 1.1-0.6 2.5-0.6h2.4q1.4 0 2.4 0.6 1.1 0.6 1.1 1.6v1.7h-2.9v-1.4q0-0.8-1.2-0.8h-1.2q-1.2 0-1.2 0.8v7.5q0 0.8 1.2 0.8zm12.8 0q1.2 0 1.2-0.8v-10h2.9v10.3q0 1-1.1 1.6-1 0.6-2.4 0.6h-2.5q-2.3 0-3.2-1.3-0.3-0.4-0.3-0.9v-10.3h2.9v10q0 0.8 1.2 0.8zm7.6 1.7v-12.5h2.9v12.5zm14.7 0h-8.6v-12.5h8.6v1.7h-5.7v3.3h4.5v1.7h-4.5v4.1h5.7zm3.2 0v-12.5h2.9l4.5 7.7v-7.6h2.9v12.4h-3l-4.5-7.5v7.5zm23.1-10.8h-3.4v10.8h-2.9v-10.8h-3.4v-1.7h9.7zm11.1 10.9h-8.6v-12.5h8.6v1.6h-5.7v3.4h4.5v1.6h-4.5v4.2h5.7z"/>
		<path id="&lt;Path&gt;" class="s9" d="m-13.2 927.5h662c5.5 0 10 4.5 10 10v80c0 5.5-4.5 10-10 10h-662c-5.6 0-10-4.5-10-10v-80c0-5.5 4.4-10 10-10z"/>
		<path id="&lt;Compound Path&gt;" fill-rule="evenodd" class="s8" d="m239.5 985.5v-12.5h2.9v12.5zm6.1 0v-12.5h3l4.5 7.6v-7.6h2.9v12.5h-3.1l-4.4-7.5v7.5zm14 0v-12.5h2.9v12.5zm11.1-1.7q1.2 0 1.2-0.8v-1.4h2.9v1.7q0 1-1.1 1.6-1 0.6-2.4 0.6h-2q-2.3 0-3.2-1.3-0.3-0.4-0.3-0.9v-8.1q0-1 1-1.6 1-0.6 2.5-0.6h2q1.4 0 2.5 0.6 1 0.6 1 1.6v1.7h-2.9v-1.4q0-0.8-1.2-0.8h-0.8q-1.3 0-1.3 0.8v7.5q0 0.8 1.3 0.8zm7.3 1.7v-12.5h2.9v12.5zm14.1-12.5l4.6 12.5h-2.9l-1-2.9h-5.5l-1 2.9h-2.9l4.6-12.5zm-4.3 7.9h4.4l-2.2-5.6zm17.1-0.9l4.1 5.6h-3l-4.1-5.5v5.5h-2.8v-12.6h5.7q1.5 0 2.5 0.6 1 0.6 1 1.7v2.5q0 1-1 1.6-1 0.6-2.4 0.6zm-0.7-1.7q1.3 0 1.3-0.8v-2q0-0.8-1.3-0.8h-2.3v3.6zm21.1 2q0-0.8-1.3-0.8h-1.7q-2.4 0-3.3-1.3-0.3-0.4-0.3-0.9v-2q0-1 1.1-1.6 1-0.7 2.5-0.7h2.3q1.5 0 2.5 0.6 1 0.6 1 1.7v1.2h-2.8v-1q0-0.8-1.3-0.8h-1.2q-1.2 0-1.2 0.8v1.5q0 0.9 1.2 0.8h1.8q1.5 0 2.5 0.6 1 0.6 1 1.7v3.2q0 1.1-1 1.7-1 0.6-2.5 0.6h-2.3q-2.3 0-3.3-1.3-0.3-0.4-0.3-1v-1.7h2.9v1.4q0 0.9 1.2 0.9h1.2q1.3 0 1.3-0.9zm14.6 5.3h-8.6v-12.5h8.6v1.6h-5.7v3.4h4.5v1.6h-4.5v4.2h5.7zm8.1-1.7q1.2 0 1.2-0.8v-1.4h2.9v1.7q0 1-1.1 1.6-1 0.6-2.4 0.6h-2q-2.3 0-3.3-1.3-0.3-0.4-0.3-0.9v-8.1q0-1 1.1-1.6 1-0.6 2.5-0.6h2q1.4 0 2.4 0.6 1.1 0.6 1.1 1.6v1.7h-2.9v-1.4q0-0.8-1.2-0.8h-0.9q-1.2 0-1.2 0.8v7.5q0 0.8 1.2 0.8zm12.1 0q1.2 0 1.2-0.8v-1.4h2.9v1.7q0 1-1.1 1.6-1 0.6-2.4 0.6h-2q-2.3 0-3.3-1.3-0.3-0.4-0.3-0.9v-8.1q0-1 1-1.6 1.1-0.6 2.6-0.6h2q1.4 0 2.4 0.6 1.1 0.6 1.1 1.6v1.7h-2.9v-1.4q0-0.8-1.2-0.8h-0.9q-1.2 0-1.2 0.8v7.5q0 0.8 1.2 0.8zm7.4 1.7v-12.5h2.8v12.5zm6.2-10.3q0-1 1-1.6 1.1-0.6 2.5-0.6h2.5q2.3 0 3.2 1.3 0.3 0.4 0.3 0.9v8.1q0 1-1.1 1.6-1 0.6-2.4 0.6h-2.5q-2.3 0-3.2-1.3-0.3-0.4-0.3-0.9zm5.4 8.6q1.2 0 1.2-0.9v-7.5q0-0.8-1.2-0.8h-1.3q-1.2 0-1.2 0.8v7.5q0 0.9 1.2 0.9zm7.4 1.6v-12.5h3l4.5 7.7v-7.7h2.9v12.5h-3.1l-4.4-7.5v7.5z"/>
		<path id="&lt;Path&gt;" class="s7" d="m-11 1322h662c5.5 0 10 4.5 10 10v80c0 5.5-4.5 10-10 10h-662c-5.5 0-10-4.5-10-10v-80c0-5.5 4.5-10 10-10z"/>
		<path id="&lt;Compound Path&gt;" fill-rule="evenodd" class="s0" d="m280.5 1380l-4.4-12.5h2.9l2.9 8.4 3-8.4h2.9l-4.4 12.5zm18.2 0h-8.6v-12.5h8.6v1.7h-5.7v3.3h4.4v1.7h-4.4v4.1h5.7zm8.9-5.5l4.1 5.5h-3l-4-5.4v5.4h-2.9v-12.5h5.8q1.4 0 2.4 0.6 1.1 0.6 1.1 1.6v2.5q0 1.1-1 1.7-1 0.6-2.5 0.6zm-0.6-1.7q1.2 0 1.2-0.8v-2q0-0.8-1.2-0.8h-2.3v3.6zm14.5 7.2v-12.5h3l3.5 7.4 3.6-7.4h2.9v12.5h-2.9v-6.3l-2.1 4.4h-3l-2.1-4.5v6.4zm24.3-12.5l4.5 12.5h-2.8l-1.1-2.9h-5.5l-1 2.9h-2.8l4.5-12.5zm-4.2 7.9h4.3l-2.2-5.6zm17.8-0.6q0-0.8-1.2-0.8h-1.8q-2.3 0-3.2-1.3-0.3-0.4-0.3-0.9v-2q0-1 1-1.6 1.1-0.7 2.5-0.7h2.4q1.4 0 2.4 0.6 1.1 0.6 1.1 1.7v1.2h-2.9v-0.9q0-0.9-1.2-0.9h-1.2q-1.2 0-1.2 0.9v1.4q0 0.9 1.2 0.8h1.8q1.4 0 2.4 0.6 1.1 0.6 1.1 1.7v3.2q0 1.1-1.1 1.7-1 0.6-2.4 0.6h-2.4q-2.3 0-3.2-1.3-0.3-0.4-0.3-1v-1.6h2.9v1.4q0 0.8 1.2 0.8h1.2q1.2 0 1.2-0.8z"/>
		<g id="&lt;Group&gt;">
			<path id="&lt;Path&gt;" class="s8" d="m-55 1428h750v166h-750z"/>
		</g>
		<g id="&lt;Group&gt;">
			<g id="&lt;Group&gt;" style="opacity: .8">
				<path id="&lt;Compound Path&gt;" fill-rule="evenodd" class="s10" d="m-9 1487.6l14.1-14.2 1.5-1.4 1.4 1.4 14.1 14.2-1.4 1.4-2.1-2.2v13.3h-24v-13.3l-2.2 2.2zm11.6 10.5v-10h8v10h6v-13.3l-10-10-10 10v13.3zm2-8v8h4v-8z"/>
			</g>
		</g>
		<g id="&lt;Group&gt;">
			<g id="&lt;Group&gt;" style="opacity: .8">
				<path id="&lt;Compound Path&gt;" fill-rule="evenodd" class="s10" d="m154.5 1492.9c-2.3 1.9-5.3 3.1-8.5 3.1-7.2 0-13-5.8-13-13 0-7.2 5.8-13 13-13 7.2 0 13 5.8 13 13 0 3.2-1.2 6.2-3.1 8.5l8.8 8.8-1.4 1.4zm-8.5-20.9c-6 0-11 5-11 11 0 6.1 5 11 11 11 6.1 0 11-4.9 11-11 0-6-4.9-11-11-11z"/>
			</g>
		</g>
		<g id="&lt;Clip Group&gt;" clip-path="url(#cp1)">
			<g id="&lt;Group&gt;">
				<path id="&lt;Path&gt;" class="s11" d="m291 1446h60c22.1 0 40 17.9 40 40 0 22.1-17.9 40-40 40h-60c-22.1 0-40-17.9-40-40 0-22.1 17.9-40 40-40z"/>
				<path id="&lt;Path&gt;" class="s8" d="m322 1485h12v2h-12v12h-2v-12h-12v-2h12v-12h2z"/>
			</g>
		</g>
		<g id="&lt;Group&gt;">
			<g id="&lt;Group&gt;" style="opacity: .8">
				<path id="&lt;Compound Path&gt;" fill-rule="evenodd" class="s10" d="m478.6 1492.9c-1-2.1-1.6-4.4-1.6-6.9 0-8.8 7.2-16 16-16 8.8 0 16 7.2 16 16 0 8.8-7.2 16-16 16-2.5 0-4.9-0.6-7-1.6l-10.5 1.3-2.5 0.3 1.3-2.2zm1.7 1.1l-3.3 5.5 8.8-1.1 0.6-0.1 0.5 0.3c1.9 0.9 4 1.4 6.2 1.4 7.7 0 14-6.3 14-14 0-7.8-6.3-14-14-14-7.8 0-14 6.2-14 14 0 2.2 0.5 4.2 1.3 6l0.5 1z"/>
			</g>
		</g>
		<path id="&lt;Path&gt;" class="s12" d="m643.9 1497.4v2.6h-20.9v-2.6c0-5.8 4.7-10.4 10.4-10.4 5.8 0 10.5 4.6 10.5 10.4z"/>
		<path id="&lt;Path&gt;" class="s13" d="m633.4 1470c4.4 0 7.9 3.5 7.9 7.8 0 4.3-3.5 7.9-7.9 7.9-4.3 0-7.8-3.6-7.8-7.9 0-4.3 3.5-7.8 7.8-7.8z"/>
		<path id="&lt;Path&gt;" class="s10" d="m190 1568h260c2.8 0 5 2.2 5 5 0 2.8-2.2 5-5 5h-260c-2.8 0-5-2.2-5-5 0-2.8 2.2-5 5-5z"/>
	</g>
</svg>